<?xml version="1.0" encoding="UTF-8" standalone="no"?>
<svg
   width="595"
   height="596"
   version="1.1"
   id="svg12"
   sodipodi:docname="hand-scissors-solid.svg"
   inkscape:version="1.2.2 (1:1.2.2+202305151914+b0a8486541)"
   xmlns:inkscape="http://www.inkscape.org/namespaces/inkscape"
   xmlns:sodipodi="http://sodipodi.sourceforge.net/DTD/sodipodi-0.dtd"
   xmlns="http://www.w3.org/2000/svg"
   xmlns:svg="http://www.w3.org/2000/svg">
  <defs
     id="defs16" />
  <sodipodi:namedview
     id="namedview14"
     pagecolor="#ffffff"
     bordercolor="#000000"
     borderopacity="0.25"
     inkscape:showpageshadow="2"
     inkscape:pageopacity="0.0"
     inkscape:pagecheckerboard="0"
     inkscape:deskcolor="#d1d1d1"
     showgrid="false"
     inkscape:zoom="0.39597315"
     inkscape:rotation="30"
     inkscape:cx="-130.69544"
     inkscape:cy="546.40851"
     inkscape:window-width="2486"
     inkscape:window-height="1016"
     inkscape:window-x="0"
     inkscape:window-y="0"
     inkscape:window-maximized="1"
     inkscape:current-layer="g6" />
  <g
     style="fill:black;fill-opacity:1;stroke:none;stroke-width:1;stroke-opacity:1;fill-rule:nonzero;"
     id="g10">
    <g
       style="fill:black;fill-opacity:1;stroke:none;stroke-width:1;stroke-opacity:1;fill-rule:nonzero;"
       id="g8">
      <g
         style=""
         id="g6">
        <g
           id="g185"
           transform="matrix(0,1.1223873,-1.2147454,0,590.86837,1.5136853)">
          <g
             id="g4">
            <path
               d="m 40,208 c -22.1,0 -40,17.9 -40,40 0,22.1 17.9,40 40,40 h 180.2 c -7.6,8.5 -12.2,19.7 -12.2,32 0,25.3 19.5,46 44.3,47.9 -7.7,8.5 -12.3,19.8 -12.3,32.1 0,26.5 21.5,48 48,48 h 32 64 c 70.7,0 128,-57.3 128,-128 V 206.9 C 512,166.7 496,128.1 467.6,99.6 444.8,76.8 413.9,64 381.7,64 H 336 c -21.3,0 -39.3,13.9 -45.6,33.1 l 74.5,23.7 c 8.4,2.7 13.1,11.7 10.4,20.1 -2.7,8.4 -11.7,13.1 -20.1,10.4 L 288,129.9 V 130 L 84,65.8 C 62.9,59.2 40.5,70.9 33.8,92 27.1,113.1 38.9,135.5 60,142.2 L 269.5,208 Z"
               id="path2" />
          </g>
        </g>
      </g>
    </g>
  </g>
</svg>
